<?xml version="1.0" encoding="utf-8"?>
<!-- Generator: Adobe Illustrator 26.0.0, SVG Export Plug-In . SVG Version: 6.00 Build 0)  -->
<svg version="1.1" id="Laag_1" xmlns="http://www.w3.org/2000/svg" xmlns:xlink="http://www.w3.org/1999/xlink" x="0px" y="0px"
	 viewBox="0 0 509.62 509.62" style="enable-background:new 0 0 509.62 509.62;" xml:space="preserve">
<g>
	<path d="M224.46,65.08c2.92-1.82,5.32-3.74,7.2-5.75c1.88-2.01,3.25-3.98,4.11-5.9l2.49,5.4c-0.54,1.5-1.4,2.92-2.57,4.25
		s-2.5,2.51-3.97,3.54c-1.48,1.03-2.94,1.87-4.38,2.5c-0.7-0.38-1.32-0.93-1.85-1.67C224.96,66.74,224.62,65.94,224.46,65.08z
		 M232.08,85.75c0.44,0,1.05,0.01,1.85,0.03c0.79,0.02,1.39,0.03,1.81,0.03h6.33c0.44,0,1.08-0.01,1.91-0.03
		c0.83-0.02,1.44-0.03,1.84-0.03h3.96c0.2,0.92,0.3,1.86,0.3,2.82c0,0.92-0.1,1.87-0.3,2.85h-23.04c-0.24-0.94-0.36-1.89-0.36-2.85
		c0-1,0.12-1.94,0.36-2.82H232.08z M242.25,81.67c0,0.8-0.01,1.58-0.03,2.33c-0.02,0.75-0.03,1.54-0.03,2.38v2.31h-6.57v-2.31
		c0-0.84-0.01-1.63-0.03-2.38c-0.02-0.75-0.03-1.52-0.03-2.33V70.06c0-0.7,0.03-1.66,0.09-2.88c0.06-1.22,0.12-2.45,0.2-3.69
		c0.07-1.24,0.09-2.26,0.08-3.06l-0.15-6.99c0.58-0.12,1.14-0.2,1.7-0.24c0.55-0.04,1.06-0.06,1.54-0.06c0.5,0,1.01,0.02,1.54,0.06
		c0.53,0.04,1.09,0.12,1.69,0.24V81.67z"/>
	<path d="M257.16,61.66c0.56-1.62,1.4-3.12,2.54-4.49c1.13-1.37,2.52-2.47,4.17-3.3c1.65-0.83,3.51-1.25,5.59-1.25
		c3.64,0,6.53,1.05,8.67,3.14c2.14,2.09,3.21,4.81,3.21,8.17c0,1.88-0.34,3.52-1.04,4.94c-0.69,1.41-1.59,2.69-2.71,3.82
		c-1.12,1.14-2.34,2.27-3.66,3.39l-4.53,3.69c-1.06,0.88-2.03,1.75-2.91,2.61c-0.88,0.86-1.59,1.65-2.12,2.38
		c-0.53,0.73-0.81,1.35-0.83,1.85l-0.15,4.83h-4.08c-0.66-0.72-1.26-1.44-1.8-2.16c-0.54-0.72-0.81-1.53-0.81-2.43
		c0-1.14,0.34-2.31,1.04-3.52c0.69-1.21,1.6-2.42,2.73-3.65c1.13-1.22,2.33-2.38,3.62-3.48l6-5.1c1.3-1.1,2.33-2.21,3.09-3.33
		c0.76-1.12,1.14-2.43,1.14-3.93c0-1.68-0.51-3.03-1.52-4.05s-2.33-1.53-3.97-1.53c-1.62,0-3.01,0.55-4.17,1.67
		c-1.16,1.11-2.03,2.44-2.61,3.98c-0.84-0.04-1.75-0.25-2.75-0.63C258.31,62.9,257.6,62.36,257.16,61.66z M282.3,85.51
		c0,2.3-0.33,3.87-1,4.7s-1.83,1.24-3.46,1.24h-18.06l-1.92-4.35c1.26-0.4,2.76-0.71,4.5-0.95c1.74-0.23,3.47-0.39,5.19-0.49
		c1.72-0.1,3.16-0.15,4.32-0.15H282.3z"/>
</g>
<g>
	<path d="M336.47,90.44c2.92-1.82,5.32-3.74,7.2-5.75c1.88-2.01,3.25-3.98,4.11-5.9l2.49,5.4c-0.54,1.5-1.4,2.92-2.57,4.25
		s-2.5,2.51-3.97,3.54c-1.48,1.03-2.94,1.87-4.38,2.5c-0.7-0.38-1.32-0.93-1.85-1.67C336.97,92.1,336.63,91.3,336.47,90.44z
		 M344.09,111.11c0.44,0,1.05,0.01,1.85,0.03c0.79,0.02,1.39,0.03,1.81,0.03h6.33c0.44,0,1.08-0.01,1.91-0.03
		c0.83-0.02,1.44-0.03,1.84-0.03h3.96c0.2,0.92,0.3,1.86,0.3,2.82c0,0.92-0.1,1.87-0.3,2.85h-23.04c-0.24-0.94-0.36-1.89-0.36-2.85
		c0-1,0.12-1.94,0.36-2.82H344.09z M354.26,107.03c0,0.8-0.01,1.58-0.03,2.33c-0.02,0.75-0.03,1.54-0.03,2.38v2.31h-6.57v-2.31
		c0-0.84-0.01-1.63-0.03-2.38c-0.02-0.75-0.03-1.52-0.03-2.33V95.42c0-0.7,0.03-1.66,0.09-2.88c0.06-1.22,0.12-2.45,0.2-3.69
		c0.07-1.24,0.09-2.26,0.08-3.06l-0.15-6.99c0.58-0.12,1.14-0.2,1.7-0.24c0.55-0.04,1.06-0.06,1.54-0.06c0.5,0,1.01,0.02,1.54,0.06
		c0.53,0.04,1.09,0.12,1.69,0.24V107.03z"/>
</g>
<g>
	<path d="M403.75,156.72c0.56-1.62,1.4-3.12,2.54-4.49c1.13-1.37,2.52-2.47,4.17-3.3c1.65-0.83,3.51-1.25,5.59-1.25
		c3.64,0,6.53,1.05,8.67,3.14c2.14,2.09,3.21,4.81,3.21,8.17c0,1.88-0.34,3.52-1.04,4.94c-0.69,1.41-1.59,2.69-2.71,3.82
		c-1.12,1.14-2.34,2.27-3.66,3.39l-4.53,3.69c-1.06,0.88-2.03,1.75-2.91,2.61c-0.88,0.86-1.59,1.65-2.12,2.38
		c-0.53,0.73-0.81,1.35-0.83,1.85l-0.15,4.83h-4.08c-0.66-0.72-1.26-1.44-1.8-2.16c-0.54-0.72-0.81-1.53-0.81-2.43
		c0-1.14,0.34-2.31,1.04-3.52c0.69-1.21,1.6-2.42,2.73-3.65c1.13-1.22,2.33-2.38,3.62-3.48l6-5.1c1.3-1.1,2.33-2.21,3.09-3.33
		c0.76-1.12,1.14-2.43,1.14-3.93c0-1.68-0.51-3.03-1.52-4.05s-2.33-1.53-3.97-1.53c-1.62,0-3.01,0.55-4.17,1.67
		c-1.16,1.11-2.03,2.44-2.61,3.98c-0.84-0.04-1.75-0.25-2.75-0.63C404.9,157.96,404.19,157.42,403.75,156.72z M428.89,180.57
		c0,2.3-0.33,3.87-1,4.7s-1.83,1.24-3.46,1.24h-18.06l-1.92-4.35c1.26-0.4,2.76-0.71,4.5-0.95c1.74-0.23,3.47-0.39,5.19-0.49
		c1.72-0.1,3.16-0.15,4.32-0.15H428.89z"/>
</g>
<g>
	<path d="M445.27,262.53c0-2.02-0.6-3.57-1.79-4.67c-1.19-1.09-2.76-1.63-4.7-1.63c-0.64,0-1.31,0.08-2.01,0.24
		c-0.7,0.16-1.33,0.39-1.89,0.69c-0.62-0.34-1.18-0.86-1.69-1.56s-0.85-1.41-1-2.13c1.12-0.5,2.37-0.92,3.75-1.26
		c1.38-0.34,2.96-0.51,4.74-0.51c2.12,0,4.07,0.41,5.83,1.22c1.77,0.81,3.19,2.04,4.25,3.67c1.06,1.64,1.59,3.71,1.59,6.21
		c0,2.1-0.39,3.94-1.16,5.52c-0.77,1.58-1.81,2.9-3.12,3.96c-1.31,1.06-2.79,1.86-4.42,2.39c-1.64,0.53-3.33,0.79-5.07,0.79
		c-2.6,0-4.94-0.39-7.02-1.16c-2.08-0.77-3.79-1.72-5.13-2.87c0.18-0.82,0.54-1.65,1.1-2.49c0.55-0.84,1.17-1.54,1.88-2.1
		c1.14,0.88,2.4,1.61,3.78,2.17c1.38,0.57,2.88,0.86,4.5,0.86c2.18,0,3.99-0.62,5.43-1.88
		C444.55,266.75,445.27,264.93,445.27,262.53z M443.53,249.93c-0.7,0.72-1.51,1.41-2.43,2.06c-0.92,0.65-1.83,1.22-2.72,1.71
		c-0.89,0.49-1.67,0.89-2.32,1.19l-3.87-1.41l7.11-7.35c0.32-0.32,0.74-0.73,1.25-1.23s1.02-1,1.54-1.5s0.95-0.89,1.29-1.17
		l-0.21-0.27c-0.7,0.16-1.69,0.3-2.98,0.41s-2.54,0.17-3.74,0.17h-8.25c-0.18-0.48-0.29-0.95-0.34-1.4
		c-0.05-0.45-0.08-0.83-0.08-1.12c0-0.48,0.04-1.02,0.12-1.6c0.08-0.59,0.24-1.17,0.48-1.73h21.06c0.52,0.98,0.89,1.81,1.12,2.5
		c0.23,0.69,0.34,1.27,0.34,1.75c0,1-0.47,2-1.41,3L443.53,249.93z"/>
</g>
<g>
	<path d="M404.83,361.26c-0.44-0.68-0.8-1.39-1.09-2.13c-0.29-0.74-0.43-1.43-0.43-2.07c0-0.48,0.12-1.05,0.36-1.71
		c0.24-0.66,0.52-1.34,0.84-2.04l10.14-22.47c0.66-0.14,1.4-0.17,2.23-0.1s1.62,0.23,2.37,0.48c0.75,0.25,1.33,0.57,1.73,0.95
		l-6.39,13.95c-0.36,0.88-0.81,1.91-1.36,3.09c-0.55,1.18-1.12,2.34-1.7,3.5s-1.13,2.11-1.65,2.87l0.15,0.24
		c0.78-0.06,1.64-0.11,2.59-0.15s1.83-0.07,2.66-0.09c0.82-0.02,1.43-0.03,1.83-0.03h8.1c0.54,0,1.02-0.01,1.44-0.03
		c0.42-0.02,0.91-0.03,1.47-0.03h2.88c0.08,0.44,0.12,0.88,0.13,1.31s0.02,0.84,0.02,1.25c0,0.44-0.03,0.96-0.09,1.54
		c-0.06,0.59-0.17,1.13-0.33,1.63h-2.61c-0.56,0-1.05,0-1.47-0.01s-0.9-0.02-1.44-0.02h-6.51c-0.54,0-1.11,0.02-1.71,0.04
		c-0.6,0.03-1.18,0.04-1.74,0.04H404.83z M418.63,364.62c0-0.56,0.01-1.14,0.03-1.74c0.02-0.6,0.03-1.17,0.03-1.71v-4.89
		c0-0.24-0.01-0.66-0.03-1.25s-0.03-1.02-0.03-1.3v-4.17c0-1.64,0.4-2.93,1.21-3.87c0.81-0.94,1.92-1.41,3.34-1.41h1.77l0.3,0.3
		v7.53c0,0.56-0.01,1.13-0.03,1.72c-0.02,0.59-0.03,1.16-0.03,1.7v5.64c0,0.54,0.01,1.11,0.03,1.71c0.02,0.6,0.03,1.18,0.03,1.74
		v4.59c-0.54,0.1-1.1,0.17-1.67,0.21c-0.57,0.04-1.12,0.06-1.67,0.06s-1.09-0.02-1.65-0.06s-1.11-0.11-1.65-0.21V364.62z"/>
</g>
<g>
	<path d="M335.06,431.66c0.14-0.68,0.48-1.48,1.02-2.4c0.54-0.92,1.16-1.63,1.86-2.13c1.22,0.84,2.48,1.52,3.77,2.04
		c1.29,0.52,2.72,0.78,4.3,0.78c1.3,0,2.51-0.28,3.63-0.84s2.02-1.42,2.7-2.59c0.68-1.17,1.02-2.67,1.02-4.49
		c0-1.8-0.35-3.22-1.05-4.28c-0.7-1.05-1.59-1.8-2.68-2.25c-1.09-0.45-2.21-0.67-3.35-0.67c-1.12,0-2.23,0.21-3.33,0.65
		c-1.1,0.43-2.14,1.04-3.12,1.84c-0.62-0.12-1.26-0.41-1.91-0.87c-0.65-0.46-1.14-0.95-1.46-1.47c0.8-0.86,1.79-1.71,2.96-2.57
		c1.17-0.85,2.49-1.55,3.96-2.12c1.47-0.56,3.05-0.84,4.75-0.84c3.76,0,6.75,1.1,8.97,3.3c2.22,2.2,3.33,5.18,3.33,8.94
		c0,3.16-0.67,5.77-2.02,7.82c-1.35,2.05-3.09,3.57-5.22,4.56s-4.36,1.49-6.71,1.49c-2.36,0-4.53-0.37-6.49-1.1
		C338.03,433.73,336.38,432.8,335.06,431.66z M343.43,408.95c-0.04,0.8-0.13,1.62-0.27,2.46c-0.14,0.84-0.34,1.64-0.6,2.4
		c-0.88,0.32-1.83,0.57-2.85,0.75c-1.02,0.18-2.1,0.32-3.24,0.42l0.93-17.79l6.03,0.99c0.08,0.56,0.14,1.3,0.2,2.23
		c0.05,0.93,0.08,1.84,0.09,2.75c0.01,0.9,0,1.61-0.04,2.13L343.43,408.95z M358.4,396.77c0.2,0.52,0.33,1.03,0.41,1.53
		c0.07,0.5,0.1,0.93,0.1,1.29c0,1.98-1.01,2.97-3.03,2.97h-10.23c-1.02,0-2.07-0.02-3.13-0.04c-1.07-0.03-2.04-0.08-2.91-0.14
		c-0.87-0.06-1.54-0.11-2-0.15l-0.21-5.04l0.42-0.42H358.4z"/>
</g>
<g>
	<path d="M256.32,460.92c-1.82,0-3.36-0.24-4.6-0.72c-1.25-0.48-2.26-1.03-3.03-1.67c-0.77-0.63-1.33-1.16-1.7-1.6
		c-0.28-0.32-0.65-0.8-1.11-1.46c-0.46-0.65-0.92-1.56-1.38-2.73c-0.46-1.17-0.85-2.69-1.18-4.56s-0.5-4.21-0.5-7
		c0-4.06,0.6-7.58,1.8-10.54c1.2-2.97,2.96-5.27,5.28-6.88c2.32-1.62,5.18-2.43,8.58-2.43c1.76,0,3.41,0.17,4.95,0.51
		s2.85,0.82,3.93,1.44c-0.06,0.88-0.3,1.77-0.72,2.67c-0.42,0.9-0.97,1.61-1.65,2.13c-0.78-0.34-1.67-0.64-2.67-0.9
		s-2.13-0.39-3.39-0.39c-2.16,0-3.9,0.54-5.22,1.61c-1.32,1.07-2.28,2.52-2.87,4.35c-0.59,1.83-0.88,3.91-0.88,6.23v5.37
		c0,1.08,0.08,2.2,0.24,3.36c0.16,1.16,0.41,2.26,0.74,3.3c0.33,1.04,0.77,1.92,1.33,2.64c0.46,0.58,1.03,1.06,1.71,1.46
		c0.68,0.39,1.49,0.58,2.43,0.58c1.98,0,3.47-0.72,4.47-2.16c1-1.44,1.5-3.31,1.5-5.61c0-1.88-0.25-3.37-0.75-4.47
		c-0.5-1.1-1.18-1.88-2.04-2.36c-0.86-0.47-1.85-0.71-2.97-0.71c-1.02,0-2.05,0.22-3.1,0.65c-1.05,0.43-2.04,1.04-2.96,1.83
		s-1.72,1.72-2.4,2.8l-1.32-3.66c0.6-1.28,1.46-2.47,2.59-3.57s2.46-2,3.97-2.69c1.52-0.69,3.18-1.04,4.98-1.04
		c3.24,0,5.87,1.03,7.88,3.09c2.01,2.06,3.01,5.28,3.01,9.66c0,2.72-0.57,5.09-1.69,7.11c-1.13,2.02-2.67,3.58-4.62,4.7
		C261.01,460.36,258.8,460.92,256.32,460.92z"/>
</g>
<g>
	<path d="M173.35,396.77c0.3,0.64,0.58,1.36,0.84,2.17c0.26,0.81,0.39,1.5,0.39,2.08c0,0.4-0.09,0.84-0.27,1.33
		c-0.18,0.49-0.47,1.02-0.87,1.58c-1.96,2.62-3.63,5.08-5.02,7.37c-1.39,2.29-2.56,4.54-3.5,6.76c-0.94,2.22-1.68,4.5-2.22,6.83
		s-0.94,4.86-1.2,7.58l-0.21,2.28c-0.46,0.1-1,0.17-1.61,0.23c-0.61,0.05-1.25,0.07-1.9,0.07c-0.6,0-1.21-0.02-1.83-0.07
		c-0.62-0.05-1.18-0.13-1.68-0.23l0.24-2.55c0.34-3.62,1.11-7.25,2.31-10.88c1.2-3.63,2.76-7.08,4.68-10.33s4.12-6.15,6.6-8.67
		l-0.21-0.27c-0.44,0.1-1.07,0.19-1.89,0.26c-0.82,0.07-1.71,0.13-2.66,0.18s-1.83,0.08-2.64,0.1c-0.81,0.02-1.42,0.03-1.82,0.03
		h-9.75c-0.24-0.7-0.36-1.49-0.36-2.37c0-0.6,0.06-1.2,0.18-1.8s0.27-1.16,0.45-1.68H173.35z"/>
</g>
<g>
	<path d="M80.18,359.64c0-1.88,0.46-3.58,1.39-5.1c0.93-1.52,2.13-2.81,3.6-3.87c1.47-1.06,3-1.84,4.61-2.34l4.98,1.95
		c-2.58,0.86-4.5,2.11-5.74,3.74c-1.25,1.63-1.88,3.34-1.88,5.14c0,1.88,0.61,3.34,1.84,4.4c1.23,1.05,2.76,1.57,4.6,1.57
		c1.24,0,2.34-0.25,3.32-0.75c0.97-0.5,1.73-1.2,2.29-2.11c0.56-0.91,0.84-1.96,0.84-3.14c0-1.24-0.31-2.31-0.95-3.22
		c-0.63-0.91-1.47-1.68-2.52-2.33c-1.05-0.64-2.21-1.16-3.5-1.56l-1.14-0.39c-2.1-0.72-3.96-1.57-5.57-2.55
		c-1.61-0.98-2.87-2.17-3.78-3.55s-1.36-3.04-1.36-4.96c0-1.96,0.54-3.71,1.62-5.24s2.55-2.73,4.42-3.6
		c1.87-0.87,3.98-1.31,6.34-1.31c2.48,0,4.64,0.42,6.5,1.26c1.85,0.84,3.29,2,4.33,3.48c1.04,1.48,1.56,3.19,1.56,5.13
		c0,1.62-0.4,3.07-1.21,4.35c-0.81,1.28-1.86,2.36-3.15,3.24c-1.29,0.88-2.66,1.54-4.1,1.98l-4.77-1.98
		c2.06-0.64,3.66-1.61,4.8-2.91c1.14-1.3,1.71-2.76,1.71-4.38c0-1.58-0.54-2.83-1.63-3.76c-1.09-0.93-2.45-1.39-4.07-1.39
		c-1.56,0-2.88,0.46-3.96,1.39s-1.62,2.16-1.62,3.67c0,1.52,0.59,2.75,1.77,3.69c1.18,0.94,2.77,1.7,4.77,2.28l1.14,0.36
		c2.12,0.68,4.04,1.57,5.77,2.66c1.73,1.09,3.1,2.43,4.11,4.02s1.51,3.49,1.51,5.69c0,2.26-0.62,4.2-1.88,5.8
		c-1.25,1.61-2.92,2.85-5,3.72s-4.38,1.31-6.9,1.31c-3.92,0-7.09-0.91-9.51-2.73C81.39,365.47,80.18,362.92,80.18,359.64z"/>
</g>
<g>
	<path d="M69.49,235.86c1.84,0,3.39,0.24,4.64,0.71c1.25,0.47,2.26,1.02,3.03,1.65c0.77,0.63,1.33,1.18,1.67,1.64
		c0.28,0.32,0.65,0.81,1.11,1.45c0.46,0.65,0.92,1.56,1.38,2.73c0.46,1.17,0.86,2.69,1.19,4.56c0.33,1.87,0.49,4.21,0.49,7.01
		c0,4.06-0.6,7.57-1.8,10.54s-2.96,5.26-5.28,6.88c-2.32,1.62-5.18,2.43-8.58,2.43c-1.76,0-3.41-0.18-4.95-0.53
		s-2.85-0.83-3.93-1.42c0.06-0.88,0.3-1.77,0.72-2.67c0.42-0.9,0.97-1.61,1.65-2.13c0.78,0.32,1.67,0.61,2.67,0.87
		s2.13,0.39,3.39,0.39c2.16,0,3.9-0.53,5.22-1.59s2.28-2.51,2.87-4.35c0.59-1.84,0.88-3.91,0.88-6.21v-5.37
		c0-1.08-0.08-2.2-0.22-3.38c-0.15-1.17-0.39-2.27-0.72-3.31c-0.33-1.04-0.79-1.91-1.36-2.61c-0.46-0.58-1.03-1.06-1.71-1.46
		c-0.68-0.39-1.49-0.58-2.43-0.58c-1.98,0-3.47,0.72-4.47,2.15c-1,1.43-1.5,3.31-1.5,5.62c0,1.86,0.25,3.35,0.75,4.46
		s1.18,1.9,2.05,2.37c0.87,0.47,1.86,0.7,2.96,0.7c1.04,0,2.08-0.21,3.12-0.64s2.03-1.04,2.96-1.83s1.72-1.73,2.38-2.81l1.32,3.66
		c-0.6,1.26-1.47,2.44-2.59,3.55c-1.13,1.11-2.46,2.01-3.98,2.69c-1.52,0.68-3.17,1.02-4.95,1.02c-3.26,0-5.89-1.02-7.9-3.07
		c-2.01-2.05-3.02-5.27-3.02-9.65c0-2.72,0.57-5.09,1.7-7.11c1.13-2.02,2.67-3.58,4.62-4.69S67.01,235.86,69.49,235.86z"/>
</g>
<g>
	<path d="M67.76,157.75c2.92-1.82,5.32-3.74,7.2-5.75c1.88-2.01,3.25-3.98,4.11-5.9l2.49,5.4c-0.54,1.5-1.4,2.92-2.57,4.25
		s-2.5,2.51-3.97,3.54c-1.48,1.03-2.94,1.87-4.38,2.5c-0.7-0.38-1.32-0.93-1.85-1.67C68.27,159.41,67.92,158.61,67.76,157.75z
		 M75.38,178.42c0.44,0,1.05,0.01,1.85,0.03c0.79,0.02,1.39,0.03,1.81,0.03h6.33c0.44,0,1.08-0.01,1.91-0.03
		c0.83-0.02,1.44-0.03,1.84-0.03h3.96c0.2,0.92,0.3,1.86,0.3,2.82c0,0.92-0.1,1.87-0.3,2.85H70.04c-0.24-0.94-0.36-1.89-0.36-2.85
		c0-1,0.12-1.94,0.36-2.82H75.38z M85.55,174.34c0,0.8-0.01,1.58-0.03,2.33c-0.02,0.75-0.03,1.54-0.03,2.38v2.31h-6.57v-2.31
		c0-0.84-0.01-1.63-0.03-2.38c-0.02-0.75-0.03-1.52-0.03-2.33v-11.61c0-0.7,0.03-1.66,0.09-2.88c0.06-1.22,0.12-2.45,0.2-3.69
		c0.07-1.24,0.09-2.26,0.08-3.06l-0.15-6.99c0.58-0.12,1.14-0.2,1.7-0.24c0.55-0.04,1.06-0.06,1.54-0.06c0.5,0,1.01,0.02,1.54,0.06
		c0.53,0.04,1.09,0.12,1.69,0.24V174.34z"/>
	<path d="M99.53,165.1c0-3.58,0.27-6.71,0.81-9.39s1.73-4.99,3.57-6.93c1.06-1.06,2.29-1.9,3.69-2.54c1.4-0.63,3.17-0.94,5.31-0.94
		c2.16,0,3.92,0.31,5.29,0.94c1.37,0.63,2.58,1.48,3.64,2.54c1.82,1.94,3,4.25,3.55,6.93s0.83,5.81,0.83,9.39
		c0,3.58-0.28,6.71-0.83,9.38c-0.55,2.67-1.74,4.99-3.55,6.95c-1.06,1.04-2.29,1.88-3.67,2.52c-1.39,0.64-3.16,0.96-5.29,0.96
		c-2.14,0-3.9-0.32-5.28-0.96c-1.38-0.64-2.61-1.48-3.69-2.52c-1.82-1.96-3.01-4.27-3.56-6.95
		C99.81,171.81,99.53,168.68,99.53,165.1z M106.67,165.1c0,3.22,0.15,5.83,0.46,7.82c0.31,1.99,0.84,3.49,1.6,4.51
		c0.44,0.72,1.02,1.26,1.73,1.6c0.71,0.35,1.51,0.53,2.42,0.53c0.92,0,1.73-0.17,2.44-0.51c0.71-0.34,1.28-0.88,1.7-1.62
		c0.74-1.04,1.27-2.55,1.59-4.53s0.48-4.58,0.48-7.8c0-3.24-0.16-5.85-0.48-7.83s-0.85-3.48-1.59-4.5c-0.44-0.72-1.01-1.25-1.71-1.6
		s-1.51-0.53-2.43-0.53c-0.9,0-1.71,0.18-2.42,0.53s-1.29,0.88-1.73,1.6c-0.74,1.02-1.27,2.52-1.59,4.5S106.67,161.86,106.67,165.1z
		"/>
</g>
<g>
	<path d="M135.85,92.63c2.92-1.82,5.32-3.74,7.2-5.75c1.88-2.01,3.25-3.98,4.11-5.9l2.49,5.4c-0.54,1.5-1.4,2.92-2.57,4.25
		s-2.5,2.51-3.97,3.54c-1.48,1.03-2.94,1.87-4.38,2.5c-0.7-0.38-1.32-0.93-1.85-1.67C136.35,94.28,136.01,93.49,135.85,92.63z
		 M143.47,113.3c0.44,0,1.05,0.01,1.85,0.03c0.79,0.02,1.39,0.03,1.81,0.03h6.33c0.44,0,1.08-0.01,1.91-0.03
		c0.83-0.02,1.44-0.03,1.84-0.03h3.96c0.2,0.92,0.3,1.86,0.3,2.82c0,0.92-0.1,1.87-0.3,2.85h-23.04c-0.24-0.94-0.36-1.89-0.36-2.85
		c0-1,0.12-1.94,0.36-2.82H143.47z M153.64,109.22c0,0.8-0.01,1.58-0.03,2.33c-0.02,0.75-0.03,1.54-0.03,2.38v2.31h-6.57v-2.31
		c0-0.84-0.01-1.63-0.03-2.38c-0.02-0.75-0.03-1.52-0.03-2.33V97.61c0-0.7,0.03-1.66,0.09-2.88c0.06-1.22,0.12-2.45,0.2-3.69
		c0.07-1.24,0.09-2.26,0.08-3.06l-0.15-6.99c0.58-0.12,1.14-0.2,1.7-0.24c0.55-0.04,1.06-0.06,1.54-0.06c0.5,0,1.01,0.02,1.54,0.06
		c0.53,0.04,1.09,0.12,1.69,0.24V109.22z"/>
	<path d="M168.25,92.63c2.92-1.82,5.32-3.74,7.2-5.75c1.88-2.01,3.25-3.98,4.11-5.9l2.49,5.4c-0.54,1.5-1.4,2.92-2.57,4.25
		s-2.5,2.51-3.97,3.54c-1.48,1.03-2.94,1.87-4.38,2.5c-0.7-0.38-1.32-0.93-1.85-1.67C168.75,94.28,168.41,93.49,168.25,92.63z
		 M175.87,113.3c0.44,0,1.05,0.01,1.85,0.03c0.79,0.02,1.39,0.03,1.81,0.03h6.33c0.44,0,1.08-0.01,1.91-0.03
		c0.83-0.02,1.44-0.03,1.84-0.03h3.96c0.2,0.92,0.3,1.86,0.3,2.82c0,0.92-0.1,1.87-0.3,2.85h-23.04c-0.24-0.94-0.36-1.89-0.36-2.85
		c0-1,0.12-1.94,0.36-2.82H175.87z M186.04,109.22c0,0.8-0.01,1.58-0.03,2.33c-0.02,0.75-0.03,1.54-0.03,2.38v2.31h-6.57v-2.31
		c0-0.84-0.01-1.63-0.03-2.38c-0.02-0.75-0.03-1.52-0.03-2.33V97.61c0-0.7,0.03-1.66,0.09-2.88c0.06-1.22,0.12-2.45,0.2-3.69
		c0.07-1.24,0.09-2.26,0.08-3.06l-0.15-6.99c0.58-0.12,1.14-0.2,1.7-0.24c0.55-0.04,1.06-0.06,1.54-0.06c0.5,0,1.01,0.02,1.54,0.06
		c0.53,0.04,1.09,0.12,1.69,0.24V109.22z"/>
</g>
<g>
	<path d="M254.81,30c124.16,0,224.81,100.65,224.81,224.81S378.97,479.62,254.81,479.62S30,378.97,30,254.81S130.65,30,254.81,30
		 M254.81,0c-34.39,0-67.76,6.74-99.19,20.04c-30.35,12.84-57.59,31.2-80.98,54.6c-23.39,23.39-41.76,50.64-54.6,80.98
		C6.74,187.05,0,220.42,0,254.81S6.74,322.57,20.04,354c12.84,30.35,31.2,57.59,54.6,80.98c23.39,23.39,50.64,41.76,80.98,54.6
		c31.43,13.3,64.81,20.04,99.19,20.04s67.76-6.74,99.19-20.04c30.35-12.84,57.59-31.2,80.98-54.6
		c23.39-23.39,41.76-50.64,54.6-80.98c13.3-31.43,20.04-64.81,20.04-99.19s-6.74-67.76-20.04-99.19
		c-12.84-30.35-31.2-57.59-54.6-80.98c-23.39-23.39-50.64-41.76-80.98-54.6C322.57,6.74,289.19,0,254.81,0L254.81,0z"/>
</g>
<g>
	<circle cx="254.81" cy="254.81" r="10.88"/>
</g>
</svg>
